<svg xmlns="http://www.w3.org/2000/svg" xmlns:xlink="http://www.w3.org/1999/xlink" width="280" height="120" viewBox="0 0 280 120">
  <defs>
    <clipPath id="clip-white">
      <rect width="280" height="120"/>
    </clipPath>
  </defs>
  <g id="white" clip-path="url(#clip-white)">
    <g id="Group_2270" transform="translate(-23 -135)">
      <path id="Union_1"  d="M283.878,165.386l-26.311-12.732a8.4,8.4,0,0,1-3.654-4.084c-.072-.171-.145-.342-.217-.514a8.658,8.658,0,0,1-.621-3.076l-.07-35.851c-.006-3,1.969-6.449,4.389-7.667l26.263-13.217a17.9,17.9,0,0,1,14.251,0L308.6,93.8l-39.212,18.126v12.554l6.408,3.225V115.154l39.212-18.125,9.161,4.433c2.42,1.218,4.4,4.669,4.39,7.667l-.076,35.851a8.606,8.606,0,0,1-.619,3.072c-.073.178-.146.347-.219.521A8.4,8.4,0,0,1,324,152.657l-26.323,12.729a17.984,17.984,0,0,1-13.8,0Z" transform="translate(-222.005 68.234)" fill="#fff"/>
      <g id="Group_8" transform="translate(128.778 168.333)">
        <path id="Path_14" d="M86.275,168.142H69.233V160.71H86.275a1.865,1.865,0,0,0,1.857-1.858,1.018,1.018,0,0,0-.546-1.038,3.179,3.179,0,0,0-1.311-.246H78.519a9,9,0,0,1-3.633-.738,9.356,9.356,0,0,1-2.949-2.008,9.452,9.452,0,0,1-1.98-2.964,9.485,9.485,0,0,1,0-7.268,9.206,9.206,0,0,1,4.93-4.932,9.141,9.141,0,0,1,3.633-.724h15.1v7.432h-15.1a1.865,1.865,0,0,0-1.857,1.858,1.866,1.866,0,0,0,.546,1.353,1.766,1.766,0,0,0,1.311.56h7.756a10.091,10.091,0,0,1,3.605.642,9.12,9.12,0,0,1,2.95,1.79,8.454,8.454,0,0,1,1.994,2.76,8.369,8.369,0,0,1,.737,3.525,8.9,8.9,0,0,1-.737,3.62,9.7,9.7,0,0,1-1.994,2.951,9.171,9.171,0,0,1-2.95,1.994A9.068,9.068,0,0,1,86.275,168.142Z" transform="translate(-69.233 -125.956)" fill="#fff"/>
        <path id="Path_15" d="M167.59,144.754h-7.456v-40.9h7.456v12.924a8.709,8.709,0,0,1,2.758-1.434,10.079,10.079,0,0,1,2.9-.424,12.692,12.692,0,0,1,5.08,1.025,12.923,12.923,0,0,1,4.138,2.814,13.44,13.44,0,0,1,2.786,4.18,12.8,12.8,0,0,1,1.024,5.1v16.721h-7.511V128.032h.055a5.486,5.486,0,0,0-.437-2.172,5.63,5.63,0,0,0-2.977-2.992,5.377,5.377,0,0,0-2.157-.437,5.643,5.643,0,0,0-2.212.437,5.559,5.559,0,0,0-3,2.992,5.474,5.474,0,0,0-.437,2.172Z" transform="translate(-129.846 -102.568)" fill="#fff"/>
        <path id="Path_16" d="M260.813,104.973a4.778,4.778,0,0,1-.4,1.94,4.988,4.988,0,0,1-1.079,1.571,5.221,5.221,0,0,1-1.6,1.066,5.013,5.013,0,0,1-3.905,0,5,5,0,0,1-2.649-2.637,4.915,4.915,0,0,1,0-3.866,4.963,4.963,0,0,1,2.649-2.65,5.009,5.009,0,0,1,3.905,0,5.226,5.226,0,0,1,1.6,1.065,4.951,4.951,0,0,1,1.079,1.585A4.809,4.809,0,0,1,260.813,104.973Zm-1.283,37.213h-7.511V112.923h7.511Z" transform="translate(-190.295 -100)" fill="#fff"/>
        <path id="Path_17" d="M301.58,177.049h-7.511v-40.41h1.8l2.977,3.525a19.86,19.86,0,0,1,2.212-1.8,16.9,16.9,0,0,1,2.5-1.462,14.84,14.84,0,0,1,2.69-.97,11.364,11.364,0,0,1,2.813-.355,15.243,15.243,0,0,1,5.8,1.106,14.344,14.344,0,0,1,4.752,3.129,14.629,14.629,0,0,1,3.209,4.877A16.477,16.477,0,0,1,324,151.011a17.061,17.061,0,0,1-1.174,6.489,14.416,14.416,0,0,1-3.209,4.891,13.925,13.925,0,0,1-4.752,3.074,15.758,15.758,0,0,1-5.8,1.066,8.856,8.856,0,0,1-1.953-.219,13.257,13.257,0,0,1-1.912-.587q-.943-.369-1.857-.833t-1.762-.956Zm14.939-26.038a8.958,8.958,0,0,0-.587-3.333,7.421,7.421,0,0,0-1.6-2.5,6.908,6.908,0,0,0-2.376-1.571,7.725,7.725,0,0,0-2.895-.546,7.621,7.621,0,0,0-2.881.546,6.932,6.932,0,0,0-2.362,1.571,7.411,7.411,0,0,0-1.6,2.5,8.951,8.951,0,0,0-.587,3.333,8.714,8.714,0,0,0,.587,3.251,7.563,7.563,0,0,0,1.6,2.514,7.165,7.165,0,0,0,2.362,1.612,7.3,7.3,0,0,0,2.881.574,7.394,7.394,0,0,0,2.895-.574,7.136,7.136,0,0,0,2.376-1.612,7.574,7.574,0,0,0,1.6-2.514A8.721,8.721,0,0,0,316.519,151.011Z" transform="translate(-219.154 -123.716)" fill="#fff"/>
        <path id="Path_18" d="M421.325,150.9a15.761,15.761,0,0,1-1.174,6.107,15.274,15.274,0,0,1-3.2,4.891,14.948,14.948,0,0,1-4.738,3.251,14.829,14.829,0,0,1-11.635,0,14.973,14.973,0,0,1-7.961-8.142,15.761,15.761,0,0,1-1.174-6.107,16.006,16.006,0,0,1,1.174-6.175,15.117,15.117,0,0,1,3.209-4.9,14.917,14.917,0,0,1,4.752-3.238,14.471,14.471,0,0,1,5.8-1.175,15.307,15.307,0,0,1,5.831,1.107,14.09,14.09,0,0,1,4.738,3.142,14.889,14.889,0,0,1,3.2,4.891A16.551,16.551,0,0,1,421.325,150.9Zm-7.511,0a8.7,8.7,0,0,0-.587-3.265,7.767,7.767,0,0,0-1.6-2.514,6.916,6.916,0,0,0-2.362-1.612,7.693,7.693,0,0,0-5.763,0,6.778,6.778,0,0,0-2.349,1.612,7.694,7.694,0,0,0-1.57,2.514,8.877,8.877,0,0,0-.573,3.265,8.457,8.457,0,0,0,.573,3.142,7.884,7.884,0,0,0,1.57,2.514,7.344,7.344,0,0,0,2.349,1.68,6.877,6.877,0,0,0,2.882.615,7.3,7.3,0,0,0,2.882-.574,7.169,7.169,0,0,0,2.362-1.612,7.573,7.573,0,0,0,1.6-2.514A8.721,8.721,0,0,0,413.814,150.9Z" transform="translate(-284.085 -123.607)" fill="#fff"/>
        <path id="Path_19" d="M480.9,138.218l20.753,29.43h9.191l-20.753-29.43Z" transform="translate(-343.732 -125.479)" fill="#fff"/>
        <path id="Path_20" d="M508.468,133.668l1.959,1.383-1.481-8.578-8.574,1.482,1.959,1.383-21.493,30.481h9.191Z" transform="translate(-343.691 -117.649)" fill="#fff"/>
      </g>
    </g>
  </g>
</svg>
